<svg width="15" height="19" viewBox="0 0 15 19" fill="none" xmlns="http://www.w3.org/2000/svg">
<path d="M4.94982 15.1173C5.52244 15.6861 6.37696 15.9661 7.51338 15.9661C8.29743 15.9661 9.011 15.7561 9.58361 15.3973C10.1562 14.9685 10.5086 14.5484 10.6496 14.1196H14.1381C13.5655 15.8173 12.711 17.025 11.5746 17.8038C10.4381 18.5126 9.08147 18.9327 7.4429 18.9327C6.30648 18.9327 5.3022 18.7227 4.3772 18.3639C3.4522 18.0138 2.73863 17.515 2.09554 16.8062C1.45245 16.1674 0.959114 15.3885 0.668401 14.4697C0.316021 13.5508 0.16626 12.562 0.16626 11.4243C0.16626 10.3654 0.307211 9.36783 0.668401 8.44897C1.02959 7.53012 1.52292 6.75128 2.16602 6.04244C2.80911 5.40362 3.59315 4.8348 4.44768 4.48476C5.37267 4.13472 6.29767 3.91595 7.4429 3.91595C8.65862 3.91595 9.72456 4.12597 10.6496 4.62478C11.5746 5.12359 12.2881 5.68365 12.8607 6.5325C13.4334 7.31134 13.8562 8.2302 14.1469 9.21906C14.2879 10.2079 14.3584 11.2055 14.2879 12.3344H3.95434C3.95434 13.4896 4.3772 14.5484 4.94982 15.1173ZM9.44266 7.67888C8.94052 7.18008 8.15647 6.90004 7.23148 6.90004C6.58838 6.90004 6.09505 7.04006 5.66339 7.25008C5.23172 7.46011 4.94982 7.74889 4.66791 8.02892C4.38601 8.30896 4.23625 8.66775 4.16577 9.01779C4.0953 9.36783 4.02482 9.65661 4.02482 9.93665H10.4381C10.2972 8.88652 9.93599 8.17769 9.44266 7.67888ZM3.1703 0.249268H11.1517V2.15699H3.1703V0.249268Z" fill="white"/>
</svg>
